IKresults-template
version=1
nRows=20
nColumns=31
inDegrees=yes

Units are S.I. units (second, meters, Newtons, ...). First line should follow naming scheme of "IK<condition>-<trial>" (e.g. IK15-3).
If the header above contains a line with 'inDegrees', this indicates whether rotational values are in degrees (yes) or radians (no).

endheader
time	gndpitch	gndroll	gndyaw	spine_tx	spine_ty	spine_tz	pitch2	roll2	yaw2	aux7jnt_r3	aux7jnt_r1	aux7jnt_r2	aux6jnt_r3	aux6jnt_r1	aux6jnt_r2	aux5jnt_r3	aux5jnt_r1	aux5jnt_r2	aux4jnt_r3	aux4jnt_r1	aux4jnt_r2	aux3jnt_r3	aux3jnt_r1	aux3jnt_r2	pitch1	roll1	yaw1	aux1jnt_r3	aux1jnt_r1	aux1jnt_r2
     15.00000000	   -102.94518569	     38.76075031	    179.45451181	      0.41725672	      0.79579299	     -0.70920392	     -0.93916978	      0.18332384	      0.74433934	     -0.17562491	      0.02511534	      0.13993578	     -0.20661703	      0.02878186	      0.16301020	     -0.20661703	      0.03959792	      0.16301020	     -0.15496277	      0.03959792	      0.16301020	     -0.10330851	      0.03593151	      0.06996789	    -12.42379315	     -2.39891624	      4.44800776	     -6.90762558	     -1.19945812	      0.49372980
     15.01000000	   -102.97143211	     38.73744974	    179.45904369	      0.41721996	      0.79582969	     -0.70913942	     -0.98062727	      0.20592346	      0.77465807	     -0.18337746	      0.02821149	      0.14563570	     -0.21573766	      0.03233001	      0.16965000	     -0.21573766	      0.04447943	      0.16965000	     -0.16180325	      0.04447943	      0.16965000	     -0.10786883	      0.04036104	      0.07281785	    -12.39075525	     -2.46441133	      4.39877694	     -6.88925651	     -1.23220566	      0.48826517
     15.02000000	   -102.93610582	     38.73497963	    179.45751254	      0.41719739	      0.79578421	     -0.70915858	     -0.84664415	      0.23020426	      0.92258860	     -0.15832260	      0.03153796	      0.17344664	     -0.18626142	      0.03614209	      0.20204676	     -0.18626142	      0.04972408	      0.20204676	     -0.13969607	      0.04972408	      0.20204676	     -0.09313071	      0.04512008	      0.08672332	    -12.59146400	     -2.47265463	      4.15568826	     -7.00085052	     -1.23632732	      0.46128228
     15.03000000	   -102.90338244	     38.75153882	    179.45661042	      0.41720780	      0.79565817	     -0.70918224	     -0.87182972	      0.27603923	      1.22050344	     -0.16303230	      0.03781734	      0.22945462	     -0.19180224	      0.04333819	      0.26729006	     -0.19180224	      0.05962443	      0.26729006	     -0.14385168	      0.05962443	      0.26729006	     -0.09590112	      0.05410374	      0.11472731	    -12.55492668	     -2.41748077	      3.60929218	     -6.98053578	     -1.20874038	      0.40063220
     15.04000000	   -102.91476097	     38.75572507	    179.45738596	      0.41721539	      0.79572276	     -0.70918881	     -0.86766093	      0.27861484	      1.14565342	     -0.16225274	      0.03817020	      0.21538282	     -0.19088511	      0.04374256	      0.25089792	     -0.19088511	      0.06018076	      0.25089792	     -0.14316383	      0.06018076	      0.25089792	     -0.09544255	      0.05460856	      0.10769141	    -12.54967442	     -2.44630477	      3.74164106	     -6.97761553	     -1.22315238	      0.41532295
     15.05000000	   -102.94404383	     38.74402109	    179.45801082	      0.41721035	      0.79576754	     -0.70915284	     -0.91099651	      0.26233252	      1.14727037	     -0.17035650	      0.03593952	      0.21568680	     -0.20041892	      0.04118623	      0.25125203	     -0.20041892	      0.05666378	      0.25125203	     -0.15031419	      0.05666378	      0.25125203	     -0.10020946	      0.05141722	      0.10784340	    -12.50960460	     -2.43038189	      3.74992932	     -6.95533672	     -1.21519095	      0.41624295
     15.06000000	   -102.93303339	     38.69555440	    179.45693517	      0.41714762	      0.79578932	     -0.70904757	     -0.87526041	      0.17577529	      1.03564872	     -0.16367384	      0.02408119	      0.19470194	     -0.19255699	      0.02759674	      0.22680691	     -0.19255699	      0.03796744	      0.22680691	     -0.14441774	      0.03796744	      0.22680691	     -0.09627850	      0.03445199	      0.09735097	    -12.55252798	     -2.36125770	      3.95106346	     -6.97920210	     -1.18062885	      0.43856888
     15.07000000	   -102.85555117	     38.78219700	    179.44781042	      0.41722266	      0.79560659	     -0.70923804	     -0.81336913	      0.28260372	      1.14675597	     -0.15210016	      0.03871668	      0.21559010	     -0.17894093	      0.04436881	      0.25113938	     -0.17894093	      0.06104236	      0.25113938	     -0.13420570	      0.06104236	      0.25113938	     -0.08947046	      0.05539038	      0.10779505	    -12.61268736	     -2.41241885	      3.70682531	     -7.01265070	     -1.20620942	      0.41145840
     15.08000000	   -102.97052530	     38.74980279	    179.45630752	      0.41725508	      0.79584161	     -0.70917823	     -0.89078824	      0.13301472	      0.66501098	     -0.16657755	      0.01822300	      0.12502205	     -0.19597311	      0.02088333	      0.14563730	     -0.19597311	      0.02873116	      0.14563730	     -0.14697983	      0.02873116	      0.14563730	     -0.09798655	      0.02607091	      0.06251102	    -12.51719788	     -2.35474118	      4.60682207	     -6.95955858	     -1.17737059	      0.51135823
     15.09000000	   -102.92021972	     38.74362356	    179.45877596	      0.41718800	      0.79573405	     -0.70915904	     -0.92373611	      0.19887570	      0.80585390	     -0.17273881	      0.02724595	      0.15150051	     -0.20322163	      0.03122351	      0.17648188	     -0.20322163	      0.04295712	      0.17648188	     -0.15241622	      0.04295712	      0.17648188	     -0.10161081	      0.03897967	      0.07575026	    -12.44584515	     -2.42300483	      4.31122929	     -6.91988648	     -1.21150241	      0.47854736
     15.10000000	   -102.90925153	     38.74539629	    179.45459226	      0.41720662	      0.79573857	     -0.70918509	     -0.90803456	      0.27056057	      1.45601130	     -0.16980261	      0.03706677	      0.27373009	     -0.19976729	      0.04247804	      0.31886625	     -0.19976729	      0.05844104	      0.31886625	     -0.14982547	      0.05844104	      0.31886625	     -0.09988365	      0.05302992	      0.13686505	    -12.48769822	     -2.34574529	      3.16948834	     -6.94315678	     -1.17287264	      0.35181388
     15.11000000	   -102.95437820	     38.75994716	    179.45600734	      0.41726127	      0.79581364	     -0.70920350	     -0.93875272	      0.28370167	      1.47915524	     -0.17554692	      0.03886709	      0.27808115	     -0.20652528	      0.04454119	      0.32393477	     -0.20652528	      0.06127951	      0.32393477	     -0.15489396	      0.06127951	      0.32393477	     -0.10326264	      0.05560558	      0.13904058	    -12.47388847	     -2.31590896	      3.16517022	     -6.93547856	     -1.15795448	      0.35133457
     15.12000000	   -102.91247524	     38.71404826	    179.45550322	      0.41713982	      0.79574334	     -0.70909710	     -0.93206193	      0.19021277	      0.92925442	     -0.17429574	      0.02605913	      0.17469981	     -0.20505330	      0.02986343	      0.20350657	     -0.20505330	      0.04108593	      0.20350657	     -0.15378998	      0.04108593	      0.20350657	     -0.10252665	      0.03728174	      0.08734990	    -12.42953234	     -2.39120136	      4.10554546	     -6.91081656	     -1.19560068	      0.45571642
     15.13000000	   -102.94366987	     38.80234492	    179.45560712	      0.41733188	      0.79575937	     -0.70932130	     -0.94251305	      0.22266026	      1.01464173	     -0.17625010	      0.03050443	      0.19075262	     -0.20735255	      0.03495768	      0.22220638	     -0.20735255	      0.04809458	      0.22220638	     -0.15551441	      0.04809458	      0.22220638	     -0.10367627	      0.04364145	      0.09537631	    -12.43044197	     -2.34604929	      3.97685831	     -6.91132232	     -1.17302465	      0.44143212
     15.14000000	   -102.93931623	     38.70595283	    179.45770732	      0.41714420	      0.79581454	     -0.70910511	     -0.84551014	      0.20749111	      0.89143042	     -0.15811054	      0.02842626	      0.16758890	     -0.18601194	      0.03257613	      0.19522312	     -0.18601194	      0.04481805	      0.19522312	     -0.13950896	      0.04481805	      0.19522312	     -0.09300597	      0.04066830	      0.08379445	    -12.59041914	     -2.47115592	      4.21597962	     -7.00026958	     -1.23557796	      0.46797463
     15.15000000	   -102.93711973	     38.70105819	    179.45676088	      0.41713748	      0.79580441	     -0.70909140	     -0.85981343	      0.21759873	      1.14071960	     -0.16078525	      0.02981100	      0.21445526	     -0.18915866	      0.03416302	      0.24981742	     -0.18915866	      0.04700129	      0.24981742	     -0.14186899	      0.04700129	      0.24981742	     -0.09457933	      0.04264939	      0.10722763	    -12.58136958	     -2.40081214	      3.77911612	     -6.99523803	     -1.20040607	      0.41948269
     15.16000000	   -102.91363974	     38.72475386	    179.45644104	      0.41715371	      0.79573783	     -0.70913714	     -0.88042192	      0.21207600	      0.86899007	     -0.16463904	      0.02905439	      0.16337011	     -0.19369252	      0.03329595	      0.19030869	     -0.19369252	      0.04580838	      0.19030869	     -0.14526939	      0.04580838	      0.19030869	     -0.09684626	      0.04156693	      0.08168506	    -12.52353267	     -2.45205686	      4.21166126	     -6.96308072	     -1.22602843	      0.46749529
     15.17000000	   -102.91161841	     38.74499918	    179.45710118	      0.41721259	      0.79572456	     -0.70919197	     -0.86681943	      0.12973288	      0.58873095	     -0.16209538	      0.01777339	      0.11068140	     -0.19069998	      0.02036808	      0.12893199	     -0.19069998	      0.02802228	      0.12893199	     -0.14302498	      0.02802228	      0.12893199	     -0.09534999	      0.02542767	      0.05534070	    -12.52021515	     -2.38637213	      4.73257088	     -6.96123618	     -1.19318606	      0.52531637
     15.18000000	   -102.94440317	     38.76116316	    179.45716149	      0.41724580	      0.79578787	     -0.70921468	     -0.91333189	      0.19185518	      0.44584731	     -0.17079322	      0.02628414	      0.08381928	     -0.20093270	      0.03012128	      0.09764049	     -0.20093270	      0.04144069	      0.09764049	     -0.15069953	      0.04144069	      0.09764049	     -0.10046635	      0.03760365	      0.04190964	    -12.45987116	     -2.53787812	      4.97366145	     -6.92768494	     -1.26893906	      0.55207748
     15.19000000	   -102.92306888	     38.75384350	    179.45518469	      0.41722101	      0.79577689	     -0.70918402	     -0.86880227	      0.28467687	      1.28231113	     -0.16246617	      0.03900070	      0.24107446	     -0.19113620	      0.04469430	      0.28082594	     -0.19113620	      0.06149016	      0.28082594	     -0.14335215	      0.06149016	      0.28082594	     -0.09556810	      0.05579672	      0.12053723	    -12.56251346	     -2.39967421	      3.50206842	     -6.98475403	     -1.19983710	      0.38873034
